<svg version="1.1" id="Layer_1" xmlns="http://www.w3.org/2000/svg" xmlns:xlink="http://www.w3.org/1999/xlink" x="0px" y="0px"
	 viewBox="0 0 256 256" style="enable-background:new 0 0 256 256;" xml:space="preserve">
<style type="text/css">
	.st0{fill:url(#SVGID_1_);}
</style>
<g>
	<linearGradient id="SVGID_1_" gradientUnits="userSpaceOnUse" x1="3" y1="128.5" x2="254" y2="128.5">
		<stop  offset="0.0295" style="stop-color:#FF0000"/>
		<stop  offset="0.7479" style="stop-color:#F15A24"/>
	</linearGradient>
	<path class="st0" d="M249,254H8c-2.76,0-5-2.24-5-5V8c0-2.76,2.24-5,5-5h241c2.76,0,5,2.24,5,5v241C254,251.76,251.76,254,249,254z
		"/>
</g>
<g>
	<path d="M23.89,195.59V55.48h42.15c11.56,0,21.96,2.81,31.19,8.42c9.23,5.61,16.43,13.54,21.62,23.77
		c5.18,10.23,7.8,21.7,7.86,34.4v6.45c0,12.83-2.53,24.33-7.59,34.5c-5.06,10.17-12.19,18.12-21.39,23.86
		c-9.2,5.74-19.46,8.65-30.78,8.71H23.89z M55.43,81.56v88.05H66.4c9.05,0,16-3.45,20.85-10.34c4.85-6.9,7.28-17.14,7.28-30.75
		v-6.06c0-13.54-2.43-23.74-7.28-30.6c-4.85-6.86-11.92-10.3-21.21-10.3H55.43z"/>
	<path d="M224.05,136.12h-49.61v33.49h58.6v25.98h-90.15V55.48h90.33v26.08h-58.78v29.54h49.61V136.12z"/>
</g>
<g>
</g>
<g>
</g>
<g>
</g>
<g>
</g>
<g>
</g>
<g>
</g>
<g>
</g>
<g>
</g>
<g>
</g>
<g>
</g>
<g>
</g>
<g>
</g>
<g>
</g>
<g>
</g>
<g>
</g>
</svg>
